<?xml version="1.0" encoding="UTF-8" standalone="no"?><!DOCTYPE svg PUBLIC "-//W3C//DTD SVG 1.1//EN" "http://www.w3.org/Graphics/SVG/1.1/DTD/svg11.dtd"><svg width="100%" height="100%" viewBox="0 0 32 32" version="1.1" xmlns="http://www.w3.org/2000/svg" xmlns:xlink="http://www.w3.org/1999/xlink" xml:space="preserve" xmlns:serif="http://www.serif.com/" style="fill-rule:evenodd;clip-rule:evenodd;stroke-linecap:round;stroke-linejoin:round;stroke-miterlimit:1.5;"><rect id="Close" x="0" y="0" width="32" height="32" style="fill:none;"/><path d="M7.515,16l-4.243,4.243c-1.171,1.17 -1.171,3.071 0,4.242l4.243,4.243c1.171,1.171 3.072,1.171 4.242,-0l4.243,-4.243l4.243,4.243c1.17,1.171 3.071,1.171 4.242,-0l4.243,-4.243c1.171,-1.171 1.171,-3.072 -0,-4.242l-4.243,-4.243l4.243,-4.243c1.171,-1.17 1.171,-3.071 -0,-4.242l-4.243,-4.243c-1.171,-1.171 -3.072,-1.171 -4.242,0l-4.243,4.243l-4.243,-4.243c-1.17,-1.171 -3.071,-1.171 -4.242,0l-4.243,4.243c-1.171,1.171 -1.171,3.072 0,4.242l4.243,4.243Z" style="fill:#fff;stroke:#000;stroke-width:4px;"/></svg>